<svg width="20" height="20" viewBox="0 0 20 20" fill="none" xmlns="http://www.w3.org/2000/svg">
<g clip-path="url(#clip0_74_43)">
<path d="M7.91663 7.91671C7.91663 8.46924 8.13612 8.99915 8.52682 9.38985C8.91752 9.78055 9.44743 10 9.99996 10C10.5525 10 11.0824 9.78055 11.4731 9.38985C11.8638 8.99915 12.0833 8.46924 12.0833 7.91671C12.0833 7.36417 11.8638 6.83427 11.4731 6.44357C11.0824 6.05287 10.5525 5.83337 9.99996 5.83337C9.44743 5.83337 8.91752 6.05287 8.52682 6.44357C8.13612 6.83427 7.91663 7.36417 7.91663 7.91671Z" stroke="white" stroke-width="2.75" stroke-linecap="round" stroke-linejoin="round"/>
<path d="M5.35669 10.4117L11.4517 2.70166" stroke="white" stroke-width="2.75" stroke-linecap="round" stroke-linejoin="round"/>
<path d="M8.33495 6.61253L5.88745 4.4917" stroke="white" stroke-width="2.75" stroke-linecap="round" stroke-linejoin="round"/>
<path d="M14.7442 5.49414L7.79749 13.81" stroke="white" stroke-width="2.75" stroke-linecap="round" stroke-linejoin="round"/>
<path d="M14.6592 5.31337C15.0525 6.0692 15.255 6.90837 15.25 7.7592C15.2534 8.67659 15.0483 9.58276 14.65 10.4092C14.1511 11.2963 13.5681 12.1335 12.9092 12.9092C12.2559 13.6867 11.6675 14.5175 11.1509 15.3925C10.8892 15.9092 10.6775 16.4509 10.52 17.0075C10.4192 17.3075 10.2892 17.5 10.0017 17.5C9.73919 17.5 9.61586 17.3867 9.48002 17.0059C9.31944 16.436 9.10196 15.8838 8.83086 15.3575C8.47651 14.7499 8.08027 14.1676 7.64502 13.615C6.91419 12.6284 5.82919 11.5025 5.26752 10.2225C4.91847 9.44542 4.74192 8.6019 4.75002 7.75003C4.74408 6.51303 5.1803 5.31461 5.98002 4.37087C6.46999 3.78386 7.0832 3.31193 7.77609 2.9886C8.46898 2.66527 9.22457 2.49847 9.98919 2.50003C10.5308 2.49809 11.0697 2.57788 11.5875 2.7367C12.2443 2.94218 12.8538 3.27565 13.381 3.7179C13.9082 4.16014 14.3426 4.70239 14.6592 5.31337Z" stroke="white" stroke-width="2.75" stroke-linecap="round" stroke-linejoin="round"/>
</g>
<defs>
<clipPath id="clip0_74_43">
<rect width="20" height="20" fill="white"/>
</clipPath>
</defs>
</svg>
