<svg width="153" height="100" viewBox="0 0 153 100" fill="none" xmlns="http://www.w3.org/2000/svg">
<rect x="27.4615" width="98.0769" height="100" rx="49.0385" fill="#D9D9D9"/>
<path d="M53.2956 57L56.6956 41H58.3356L55.2756 55.48H61.9756L61.6356 57H53.2956ZM69.2278 57.28C68.0545 57.28 67.1745 57.0667 66.5878 56.64C66.0011 56.2133 65.6678 55.5267 65.5878 54.58C65.5078 53.62 65.6278 52.34 65.9478 50.74C66.2011 49.5 66.6078 48.4067 67.1678 47.46C67.7411 46.5 68.4278 45.7467 69.2278 45.2C70.0278 44.64 70.8811 44.36 71.7878 44.36C72.9611 44.36 73.8478 44.5733 74.4478 45C75.0478 45.4267 75.3878 46.12 75.4678 47.08C75.5611 48.0267 75.4278 49.3 75.0678 50.9C74.8011 52.1267 74.3811 53.22 73.8078 54.18C73.2345 55.14 72.5545 55.9 71.7678 56.46C70.9945 57.0067 70.1478 57.28 69.2278 57.28ZM69.3878 55.76C69.9878 55.76 70.5678 55.5467 71.1278 55.12C71.7011 54.68 72.2011 54.08 72.6278 53.32C73.0545 52.56 73.3611 51.7 73.5478 50.74C73.8011 49.5 73.9078 48.5267 73.8678 47.82C73.8411 47.1133 73.6478 46.6133 73.2878 46.32C72.9278 46.0267 72.3745 45.88 71.6278 45.88C71.0278 45.88 70.4478 46.1 69.8878 46.54C69.3411 46.9667 68.8545 47.56 68.4278 48.32C68.0145 49.0667 67.6945 49.9267 67.4678 50.9C67.2011 52.14 67.0811 53.1133 67.1078 53.82C67.1345 54.5267 67.3345 55.0267 67.7078 55.32C68.0811 55.6133 68.6411 55.76 69.3878 55.76ZM78.8 61.12C78.08 61.12 77.5 60.9667 77.06 60.66C76.6333 60.3667 76.4267 59.9733 76.44 59.48C76.44 58.92 76.74 58.44 77.34 58.04C77.9533 57.64 78.8267 57.3333 79.96 57.12C81.0933 56.9067 82.4267 56.8 83.96 56.8C84.0667 56.5867 84.1533 56.3267 84.22 56.02C84.3 55.7133 84.38 55.4333 84.46 55.18C84.2333 55.3667 83.9333 55.5267 83.56 55.66C83.2 55.7933 82.8133 55.9 82.4 55.98C81.9867 56.0467 81.5867 56.08 81.2 56.08C80.1067 56.08 79.2267 55.7667 78.56 55.14C77.8933 54.5133 77.56 53.68 77.56 52.64C77.5467 51.8267 77.6733 51.02 77.94 50.22C78.22 49.4067 78.5933 48.6467 79.06 47.94C79.54 47.2333 80.0867 46.6133 80.7 46.08C81.3267 45.5467 81.98 45.1267 82.66 44.82C83.34 44.5133 84.0133 44.36 84.68 44.36C85.6933 44.36 86.4733 44.5133 87.02 44.82C87.5667 45.1267 87.8267 45.6333 87.8 46.34C87.8 46.46 87.7667 46.7133 87.7 47.1C87.6467 47.4867 87.5667 47.9533 87.46 48.5C87.3533 49.0467 87.2333 49.6467 87.1 50.3C86.9667 50.94 86.8267 51.5867 86.68 52.24C86.5333 52.8933 86.3867 53.52 86.24 54.12C86.0933 54.72 85.9533 55.26 85.82 55.74C85.7 56.2067 85.5933 56.5733 85.5 56.84C85.8067 56.8133 86.0867 56.7733 86.34 56.72C86.5933 56.6667 86.9267 56.58 87.34 56.46L86.86 58.04C86.5667 58.1333 86.2333 58.2 85.86 58.24C85.5 58.28 85.1533 58.3067 84.82 58.32C84.4333 58.8933 83.9267 59.3867 83.3 59.8C82.6867 60.2267 81.9933 60.5533 81.22 60.78C80.4467 61.0067 79.64 61.12 78.8 61.12ZM79.18 59.6C79.8333 59.6 80.4733 59.48 81.1 59.24C81.74 59.0133 82.2933 58.7133 82.76 58.34C81.88 58.38 81.0867 58.4533 80.38 58.56C79.6733 58.68 79.1067 58.8067 78.68 58.94C78.2533 59.0867 78.0333 59.2267 78.02 59.36C78.02 59.4133 78.1333 59.4667 78.36 59.52C78.6 59.5733 78.8733 59.6 79.18 59.6ZM81.34 54.56C82.1533 54.56 82.8067 54.52 83.3 54.44C83.7933 54.3467 84.1733 54.16 84.44 53.88C84.7067 53.5867 84.9 53.1533 85.02 52.58C85.4067 50.7133 85.7 49.2933 85.9 48.32C86.1133 47.3467 86.22 46.76 86.22 46.56C86.22 46.3333 86.1667 46.18 86.06 46.1C85.9667 46.0067 85.8 45.9467 85.56 45.92C85.3333 45.8933 84.9933 45.88 84.54 45.88C84.0867 45.88 83.6067 46.0067 83.1 46.26C82.5933 46.5133 82.1 46.8667 81.62 47.32C81.1533 47.76 80.7267 48.2667 80.34 48.84C79.9667 49.4 79.6667 49.9933 79.44 50.62C79.2267 51.2467 79.1267 51.8733 79.14 52.5C79.1533 53.14 79.36 53.6467 79.76 54.02C80.1733 54.38 80.7 54.56 81.34 54.56ZM93.2122 57.28C92.0389 57.28 91.1589 57.0667 90.5722 56.64C89.9855 56.2133 89.6522 55.5267 89.5722 54.58C89.4922 53.62 89.6122 52.34 89.9322 50.74C90.1855 49.5 90.5922 48.4067 91.1522 47.46C91.7255 46.5 92.4122 45.7467 93.2122 45.2C94.0122 44.64 94.8655 44.36 95.7722 44.36C96.9455 44.36 97.8322 44.5733 98.4322 45C99.0322 45.4267 99.3722 46.12 99.4522 47.08C99.5455 48.0267 99.4122 49.3 99.0522 50.9C98.7855 52.1267 98.3655 53.22 97.7922 54.18C97.2189 55.14 96.5389 55.9 95.7522 56.46C94.9789 57.0067 94.1322 57.28 93.2122 57.28ZM93.3722 55.76C93.9722 55.76 94.5522 55.5467 95.1122 55.12C95.6855 54.68 96.1855 54.08 96.6122 53.32C97.0389 52.56 97.3455 51.7 97.5322 50.74C97.7855 49.5 97.8922 48.5267 97.8522 47.82C97.8255 47.1133 97.6322 46.6133 97.2722 46.32C96.9122 46.0267 96.3589 45.88 95.6122 45.88C95.0122 45.88 94.4322 46.1 93.8722 46.54C93.3255 46.9667 92.8389 47.56 92.4122 48.32C91.9989 49.0667 91.6789 49.9267 91.4522 50.9C91.1855 52.14 91.0655 53.1133 91.0922 53.82C91.1189 54.5267 91.3189 55.0267 91.6922 55.32C92.0655 55.6133 92.6255 55.76 93.3722 55.76Z" fill="black"/>
</svg>
